<?xml version="1.0" encoding="UTF-8" standalone="no"?>
<!DOCTYPE svg PUBLIC "-//W3C//DTD SVG 1.1//EN" "http://www.w3.org/Graphics/SVG/1.1/DTD/svg11.dtd">
<svg width="100%" height="100%" viewBox="0 0 650 407" version="1.1" xmlns="http://www.w3.org/2000/svg" xmlns:xlink="http://www.w3.org/1999/xlink" xml:space="preserve" xmlns:serif="http://www.serif.com/" style="fill-rule:evenodd;clip-rule:evenodd;stroke-linecap:round;stroke-linejoin:round;stroke-miterlimit:1.5;">
    <g transform="matrix(1,0,0,1,-197.909,-221.132)">
        <path d="M446.055,287.807C446.055,269.211 430.957,254.113 412.361,254.113L245.083,254.113C226.487,254.113 211.389,269.211 211.389,287.807L211.389,355.197C211.389,373.794 226.487,388.892 245.083,388.892L412.361,388.892C430.957,388.892 446.055,373.794 446.055,355.197L446.055,287.807Z" style="fill:rgb(0,49,89);"/>
        <g>
            <text x="225.622px" y="319.287px" style="font-family:'ArialMT', 'Arial', sans-serif;font-size:14px;fill:white;">Data export started -- run every 1</text>
            <text x="269.178px" y="333.745px" style="font-family:'ArialMT', 'Arial', sans-serif;font-size:14px;fill:white;">hour on a schedule</text>
        </g>
    </g>
    <g transform="matrix(0.522166,9.07166e-17,9.07166e-17,1,-7.99285,-221.132)">
        <g transform="matrix(1.9151,-1.73731e-16,-1.73731e-16,1,15.3071,221.132)">
            <path d="M398.49,95.87L404.49,100.37L398.49,104.87L398.49,95.87Z" style="fill:white;"/>
            <path d="M248.147,100.37L399.69,100.37" style="fill:none;stroke:white;stroke-width:2px;"/>
        </g>
    </g>
    <g transform="matrix(1,0,0,1,193.101,-221.132)">
        <path d="M446.055,287.807C446.055,269.211 430.957,254.113 412.361,254.113L245.083,254.113C226.487,254.113 211.389,269.211 211.389,287.807L211.389,355.197C211.389,373.794 226.487,388.892 245.083,388.892L412.361,388.892C430.957,388.892 446.055,373.794 446.055,355.197L446.055,287.807Z" style="fill:rgb(0,49,89);"/>
        <g>
            <text x="238.966px" y="312.058px" style="font-family:'ArialMT', 'Arial', sans-serif;font-size:14px;fill:white;">login to monarch money<tspan x="387.34px 391.23px " y="312.058px 312.058px ">, </tspan>and</text>
            <text x="238.447px" y="326.516px" style="font-family:'ArialMT', 'Arial', sans-serif;font-size:14px;fill:white;">download a CSV export of all</text>
            <text x="225.667px" y="340.974px" style="font-family:'ArialMT', 'Arial', sans-serif;font-size:14px;fill:white;">transactions with main &apos;rental&apos; tag</text>
        </g>
    </g>
    <g transform="matrix(1,0,0,1,193.101,-15.6226)">
        <path d="M446.055,287.807C446.055,269.211 430.957,254.113 412.361,254.113L245.083,254.113C226.487,254.113 211.389,269.211 211.389,287.807L211.389,355.197C211.389,373.794 226.487,388.892 245.083,388.892L412.361,388.892C430.957,388.892 446.055,373.794 446.055,355.197L446.055,287.807Z" style="fill:rgb(0,49,89);"/>
        <text x="248.574px" y="326.516px" style="font-family:'ArialMT', 'Arial', sans-serif;font-size:14px;fill:white;">CSV ﬁle parsed/formatted</text>
    </g>
    <g transform="matrix(1,0,0,1,-200.545,-15.6226)">
        <path d="M446.055,287.807C446.055,269.211 430.957,254.113 412.361,254.113L245.083,254.113C226.487,254.113 211.389,269.211 211.389,287.807L211.389,355.197C211.389,373.794 226.487,388.892 245.083,388.892L412.361,388.892C430.957,388.892 446.055,373.794 446.055,355.197L446.055,287.807Z" style="fill:rgb(0,49,89);"/>
        <g>
            <text x="229.888px" y="319.287px" style="font-family:'ArialMT', 'Arial', sans-serif;font-size:14px;fill:white;">Newly formatted data pushed to</text>
            <text x="243.116px" y="333.745px" style="font-family:'ArialMT', 'Arial', sans-serif;font-size:14px;fill:white;">Google Sheets via their <tspan x="391.763px 401.101px " y="333.745px 333.745px ">AP</tspan>I</text>
        </g>
    </g>
    <g transform="matrix(1,0,0,1,-242.386,-221.132)">
        <g transform="matrix(1,-0,-0,1,242.386,221.132)">
            <path d="M526.323,232.49L521.823,238.49L517.323,232.49L526.323,232.49Z" style="fill:white;"/>
            <path d="M521.823,167.76L521.823,233.69" style="fill:none;stroke:white;stroke-width:2px;"/>
        </g>
    </g>
    <g transform="matrix(1,0,0,1,-242.386,-221.132)">
        <g transform="matrix(1,-0,-0,1,242.386,221.132)">
            <path d="M251.51,310.38L245.51,305.88L251.51,301.38L251.51,310.38Z" style="fill:white;"/>
            <path d="M404.49,305.88L250.31,305.88" style="fill:none;stroke:white;stroke-width:2px;"/>
        </g>
    </g>
</svg>
