<?xml version="1.0" standalone="no"?>
<!DOCTYPE svg PUBLIC "-//W3C//DTD SVG 20010904//EN"
 "http://www.w3.org/TR/2001/REC-SVG-20010904/DTD/svg10.dtd">
<svg version="1.0" xmlns="http://www.w3.org/2000/svg"
 width="700.000000pt" height="700.000000pt" viewBox="0 0 700.000000 700.000000"
 preserveAspectRatio="xMidYMid meet">
<metadata>
Created by potrace 1.14, written by Peter Selinger 2001-2017
</metadata>
<g transform="translate(0.000000,700.000000) scale(0.100000,-0.100000)"
fill="#000000" stroke="none">
<path d="M3228 6625 c-2 -2 -57 -6 -123 -9 -66 -4 -133 -9 -150 -11 -16 -2
-55 -6 -85 -9 -109 -12 -147 -18 -310 -47 -499 -90 -930 -260 -1295 -511 -140
-96 -233 -175 -380 -323 -253 -253 -420 -500 -552 -815 -19 -47 -41 -98 -48
-115 -56 -131 -150 -508 -169 -680 -6 -52 -14 -117 -21 -171 -7 -50 -18 -300
-18 -409 0 -106 12 -378 18 -417 2 -13 6 -48 9 -78 12 -116 16 -142 51 -314
61 -300 169 -595 308 -840 40 -72 146 -237 157 -246 3 -3 17 -21 30 -40 14
-19 34 -46 45 -59 225 -270 465 -475 755 -645 69 -41 338 -170 405 -195 33
-13 69 -27 80 -31 26 -12 223 -74 300 -95 59 -17 72 -20 118 -30 20 -4 126
-27 137 -30 3 0 27 -4 53 -9 27 -4 59 -10 70 -12 12 -2 67 -11 122 -19 90 -12
125 -16 260 -30 167 -16 594 -22 780 -10 182 11 221 14 280 21 33 3 71 8 85 9
57 6 146 18 165 21 11 2 47 9 80 14 184 30 373 72 525 117 158 46 414 135 485
168 17 7 43 18 58 24 l27 11 0 -61 0 -60 373 2 c453 1 533 12 705 94 190 90
328 236 381 402 25 80 31 123 31 218 0 93 -4 121 -33 204 -65 186 -235 330
-460 391 l-49 13 81 32 c159 63 265 155 328 282 34 70 38 84 40 172 4 163 -38
286 -133 383 -140 144 -339 211 -631 212 l-103 1 0 55 c-1 30 -1 157 -1 283
l0 227 -1205 0 -1204 0 -1 -22 c-1 -29 -1 -631 0 -638 1 -3 150 -5 331 -5 213
0 330 -4 331 -10 4 -47 3 -845 -2 -845 -3 0 -113 125 -245 277 -131 152 -317
367 -413 478 l-173 200 -144 1 c-79 1 -144 -1 -144 -5 0 -3 13 -20 28 -37 15
-17 50 -58 77 -90 68 -78 115 -133 146 -169 15 -16 120 -138 234 -270 114
-132 230 -267 259 -299 28 -32 51 -63 51 -67 0 -4 -20 -30 -45 -56 -25 -27
-99 -107 -165 -178 -66 -71 -149 -159 -183 -197 -35 -37 -73 -77 -83 -89 -10
-12 -70 -76 -131 -142 -147 -157 -233 -250 -292 -314 l-49 -53 185 0 186 0 89
98 c49 53 107 117 129 141 21 24 50 56 64 70 14 15 59 64 100 110 41 47 82 91
90 100 9 9 56 61 105 116 50 55 113 125 141 155 28 30 80 87 115 127 35 39 66
70 68 67 7 -7 7 -964 1 -974 -9 -15 -137 -31 -360 -46 -212 -15 -662 -8 -815
11 -16 2 -52 7 -80 10 -361 45 -733 162 -965 303 -19 12 -44 26 -55 31 -39 17
-220 158 -298 231 -310 291 -513 714 -596 1243 -18 112 -24 161 -37 318 -6 69
-6 463 0 549 5 78 16 196 21 230 2 14 7 45 10 70 3 25 8 52 10 60 2 8 7 35 10
60 13 95 63 278 117 430 33 93 137 313 150 318 4 2 8 8 8 13 0 14 87 144 149
221 370 462 964 719 1761 763 101 6 390 6 475 1 166 -11 217 -16 390 -41 209
-30 607 -139 770 -210 17 -7 55 -23 85 -35 202 -82 498 -247 700 -388 l115
-81 3 426 c1 235 -1 430 -5 434 -12 11 -210 111 -293 148 -219 98 -535 209
-710 251 -25 6 -53 13 -62 15 -10 3 -28 7 -40 10 -13 2 -63 14 -113 25 -113
25 -230 45 -365 64 -122 18 -215 28 -390 42 -70 6 -617 13 -622 9z m1865
-3634 c4 -1 7 -361 7 -801 l-1 -800 -69 -35 c-105 -53 -354 -142 -449 -161
-14 -3 -28 -7 -33 -10 -4 -3 -8 403 -8 903 l0 908 272 -1 c150 -1 276 -2 281
-3z m1057 -141 c93 -5 270 -52 270 -72 0 -4 6 -8 13 -8 22 0 94 -79 118 -129
28 -59 34 -171 12 -244 -45 -155 -190 -237 -450 -253 l-103 -6 -1 43 c-3 322
2 663 10 668 10 6 30 6 131 1z m33 -965 c122 -16 270 -75 334 -135 99 -91 145
-199 144 -339 -1 -133 -32 -214 -117 -303 -38 -39 -123 -97 -166 -114 -16 -5
-18 0 -18 39 l0 46 -57 -20 c-32 -11 -76 -23 -98 -27 -85 -14 -255 -3 -255 16
0 4 13 15 29 25 27 16 29 21 30 89 1 39 4 74 7 77 3 3 87 6 187 6 l182 0 -2
69 c-3 71 -31 149 -69 192 -52 58 -190 109 -263 98 -16 -3 -32 0 -35 5 -7 11
-9 61 -7 202 l1 87 63 -4 c34 -2 84 -6 110 -9z m-15 -397 c48 -23 92 -87 92
-134 l0 -29 -120 1 c-66 0 -123 3 -127 7 -7 8 -6 165 2 177 8 14 109 -1 153
-22z m-287 -518 c24 -11 54 -20 67 -20 12 0 22 -4 22 -8 0 -4 -52 -8 -115 -8
-63 0 -113 2 -110 4 2 3 86 50 91 52 1 0 21 -9 45 -20z"/>
<path d="M3645 1990 l-29 -30 24 -25 c13 -14 29 -25 35 -25 11 0 55 45 55 56
0 6 -48 54 -54 54 -1 0 -15 -13 -31 -30z"/>
<path d="M3419 1749 c-79 -83 -146 -154 -149 -158 -9 -12 -62 -51 -70 -51 -4
0 -23 11 -43 24 l-36 25 -15 -24 c-15 -23 -14 -25 24 -55 52 -41 99 -49 142
-22 39 24 348 347 347 362 0 3 -13 15 -28 27 l-29 23 -143 -151z"/>
</g>
</svg>
